<svg id="Layer_1" data-name="Layer 1" xmlns="http://www.w3.org/2000/svg" viewBox="0 0 100 100"><title>clock</title><path d="M50,0a50,50,0,1,0,50,50A50,50,0,0,0,50,0Zm0,92A42,42,0,1,1,92,50,42,42,0,0,1,50,92Z"/><path d="M72.53,29.39,50.79,44.57,31.29,20.14a4,4,0,0,0-6.25,5L46.87,52.5a3.9,3.9,0,0,0,.3.3,4,4,0,0,0,.29.29,3.9,3.9,0,0,0,.47.32c.1.06.2.14.31.19a4,4,0,0,0,.59.22c.09,0,.18.07.27.09A4,4,0,0,0,50,54h0a4,4,0,0,0,.63-.05l.2,0a3.93,3.93,0,0,0,.41-.1l.24-.1.35-.15.25-.15.21-.12L77.11,35.95a4,4,0,1,0-4.58-6.56Z"/></svg>