<svg id="Layer_1" data-name="Layer 1" xmlns="http://www.w3.org/2000/svg" viewBox="0 0 92 67.01"><title>comments</title><path d="M39.62,43H83.88a5.55,5.55,0,0,1,5.55,5.55V74.86a.63.63,0,0,1-1.07.45l-2.44-2.44-.33-.33a5.44,5.44,0,0,0-3.85-1.59H40.25a5.55,5.55,0,0,1-5.55-5.55V47.9A4.93,4.93,0,0,1,39.62,43m0-6.56A11.52,11.52,0,0,0,28.13,47.9V65.39A12.15,12.15,0,0,0,40.25,77.51H81a.63.63,0,0,1,.45.18l9.4,9.4A3,3,0,0,0,93,88a3,3,0,0,0,3-3V48.53A12.15,12.15,0,0,0,83.88,36.41Z" transform="translate(-4 -20.97)"/><path d="M24.13,55.5H18.26a5.44,5.44,0,0,0-3.85,1.59l-.33.33-2.44,2.44a.63.63,0,0,1-1.07-.45V33.08a5.55,5.55,0,0,1,5.55-5.55H60.38a4.93,4.93,0,0,1,4.92,4.88h6.57A11.52,11.52,0,0,0,60.38,21H16.12A12.15,12.15,0,0,0,4,33.08V69.51a3,3,0,0,0,3,3,3,3,0,0,0,2.11-.89l9.4-9.4a.63.63,0,0,1,.45-.18h5.15Z" transform="translate(-4 -20.97)"/></svg>