<svg xmlns="http://www.w3.org/2000/svg" viewBox="0 0 92.62 86.46"><title>downVote</title><path d="M50,94.42l46-46a.93.93,0,0,0-.66-1.59H70.78a.93.93,0,0,1-.93-.93v-37A.93.93,0,0,0,68.92,8H31.08a.93.93,0,0,0-.93.93v37a.93.93,0,0,1-.93.93H4.62A.93.93,0,0,0,4,48.38l46,46Z" transform="translate(-3.69 -7.95)" fill="#fff"/><path d="M50,82.23,24.77,57a.93.93,0,0,1,.66-1.59h12.4a.93.93,0,0,0,.93-.93v-37a.93.93,0,0,1,.93-.93H60.3a.93.93,0,0,1,.93.93v37a.93.93,0,0,0,.93.93h12.4A.93.93,0,0,1,75.23,57L50,82.23m0,12.19,46-46a.93.93,0,0,0-.66-1.59H70.78a.93.93,0,0,1-.93-.93v-37A.93.93,0,0,0,68.92,8H31.08a.93.93,0,0,0-.93.93v37a.93.93,0,0,1-.93.93H4.62A.93.93,0,0,0,4,48.38l46,46Z" transform="translate(-3.69 -7.95)"/></svg>