<svg id="Layer_1" data-name="Layer 1" xmlns="http://www.w3.org/2000/svg" viewBox="0 0 87.61 80.75">
<title>heart</title>
<path id="1" d="M50,94.42,13.84,58.26A26.12,26.12,0,0,1,50,20.57,26.12,26.12,0,0,1,86.16,58.26Z" transform="translate(-6.2 -13.67)"/>
<path d="M50,94.42,13.84,58.26A26.12,26.12,0,0,1,50,20.57,26.12,26.12,0,0,1,86.16,58.26ZM32.31,22.17A17.61,17.61,0,0,0,19.85,52.25L50,82.4,80.15,52.25A17.62,17.62,0,1,0,55.23,27.33L50,32.56l-5.23-5.23A17.57,17.57,0,0,0,32.31,22.17Z" transform="translate(-6.2 -13.67)"/>
</svg>
