<svg xmlns="http://www.w3.org/2000/svg" viewBox="0 0 97.25 97.25">
<title>logo</title>
<path d="M92.55,33.67l-3.47-2.55L86.89,49.19,84.1,18.71A11.51,11.51,0,0,0,71.59,8.3L59.52,9.41,49.76,2.23A11.51,11.51,0,0,0,33.67,4.69L31.13,8.16l18.06,2.19-30.48,2.8A11.51,11.51,0,0,0,8.3,25.66L9.41,37.72,2.23,47.49A11.51,11.51,0,0,0,4.69,63.57l3.47,2.55,2.19-18.06,2.8,30.48A11.51,11.51,0,0,0,25.66,88.95l12.06-1.11L47.49,95a11.51,11.51,0,0,0,16.09-2.46l2.55-3.47L48.06,86.89l30.48-2.8A11.51,11.51,0,0,0,88.95,71.59L87.84,59.52,95,49.76A11.51,11.51,0,0,0,92.55,33.67ZM63.21,77.88a8.2,8.2,0,0,1-4.07.93q-4,0-7-4.89a56.27,56.27,0,0,1-4.41-9.19q-2.3-5.85-3.59-10.21a2.78,2.78,0,0,1-1.56-2.74,10.87,10.87,0,0,1,.56-3.33,8.45,8.45,0,0,0,2.53.35A8,8,0,0,0,51.84,46q2.5-2.77,2.52-8.23,0-6.06-2.36-8.42T44.56,27a35,35,0,0,0-4.44.33q.26,4.78.22,17L40.28,61q0,11.27,1.24,16.48a10.52,10.52,0,0,1-4.24.67q-2.53,0-3.45-1.12a5.93,5.93,0,0,1-.91-3.76q0-1.36.09-6.74t.1-8.37l.06-17.07a180.09,180.09,0,0,0-.82-19.64,55.88,55.88,0,0,1,10.73-1q19.19.06,19.13,17.39a19.43,19.43,0,0,1-2.87,10.88,14.06,14.06,0,0,1-7.5,5.82q4.4,11.88,7.26,15.31,1.56,2.4,3.61,2.4A5.26,5.26,0,0,0,64.29,72a9.6,9.6,0,0,1,.6,3A3.11,3.11,0,0,1,63.21,77.88Z"/>
</svg>