<svg xmlns="http://www.w3.org/2000/svg" viewBox="0 0 92.62 86.46">
<title>upVote</title>
<path d="M50,8,4,54a.93.93,0,0,0,.66,1.59H29.22a.93.93,0,0,1,.93.93v37a.93.93,0,0,0,.93.93H68.92a.93.93,0,0,0,.93-.93v-37a.93.93,0,0,1,.93-.93H95.38A.93.93,0,0,0,96,54L50,8Z" transform="translate(-3.69 -7.95)" fill="#fff"/>
<path d="M50,20.14,75.23,45.37A.93.93,0,0,1,74.57,47H62.16a.93.93,0,0,0-.93.93v37a.93.93,0,0,1-.93.93H39.7a.93.93,0,0,1-.93-.93v-37a.93.93,0,0,0-.93-.93H25.43a.93.93,0,0,1-.66-1.59L50,20.14M50,8,4,54a.93.93,0,0,0,.66,1.59H29.22a.93.93,0,0,1,.93.93v37a.93.93,0,0,0,.93.93H68.92a.93.93,0,0,0,.93-.93v-37a.93.93,0,0,1,.93-.93H95.38A.93.93,0,0,0,96,54L50,8Z" transform="translate(-3.69 -7.95)"/>
</svg>